<svg width="24" height="25" viewBox="0 0 24 25" fill="none" xmlns="http://www.w3.org/2000/svg">
<path fill-rule="evenodd" clip-rule="evenodd" d="M12.0001 14.622L17.3031 19.925C17.5845 20.2064 17.9661 20.3645 18.3641 20.3645C18.762 20.3645 19.1437 20.2064 19.4251 19.925C19.7065 19.6436 19.8646 19.2619 19.8646 18.864C19.8646 18.466 19.7065 18.0844 19.4251 17.803L14.1201 12.5L19.4241 7.19699C19.5634 7.05766 19.6738 6.89226 19.7492 6.71024C19.8245 6.52821 19.8633 6.33313 19.8632 6.13613C19.8632 5.93914 19.8243 5.74407 19.7489 5.56209C19.6735 5.3801 19.5629 5.21475 19.4236 5.07549C19.2843 4.93622 19.1189 4.82576 18.9368 4.75042C18.7548 4.67507 18.5597 4.63631 18.3627 4.63636C18.1657 4.63641 17.9707 4.67526 17.7887 4.75069C17.6067 4.82612 17.4414 4.93666 17.3021 5.07599L12.0001 10.379L6.69709 5.07599C6.55879 4.93266 6.39333 4.81831 6.21036 4.73961C6.02739 4.66091 5.83058 4.61944 5.63141 4.61762C5.43224 4.61579 5.23471 4.65365 5.05033 4.72899C4.86595 4.80432 4.69842 4.91562 4.55752 5.05639C4.41661 5.19717 4.30515 5.36459 4.22964 5.5489C4.15414 5.73321 4.11609 5.93071 4.11773 6.12988C4.11936 6.32905 4.16065 6.52589 4.23917 6.70894C4.3177 6.89198 4.43189 7.05755 4.57509 7.19599L9.88009 12.5L4.57609 17.804C4.43289 17.9424 4.3187 18.108 4.24017 18.291C4.16165 18.4741 4.12036 18.6709 4.11873 18.8701C4.11709 19.0693 4.15514 19.2668 4.23064 19.4511C4.30615 19.6354 4.41761 19.8028 4.55852 19.9436C4.69942 20.0844 4.86695 20.1957 5.05133 20.271C5.23571 20.3463 5.43324 20.3842 5.63241 20.3824C5.83158 20.3805 6.02839 20.3391 6.21136 20.2604C6.39433 20.1817 6.55979 20.0673 6.69809 19.924L12.0001 14.622Z" fill="black"/>
</svg>
