<svg width="329" height="353" viewBox="0 0 329 353" fill="none" xmlns="http://www.w3.org/2000/svg">
<path d="M191.135 251.971L218.29 299.893L191.135 347.815H139.547L110.75 299.82L137.865 251.971H191.135ZM296.097 190.228L323.252 238.15L296.097 286.072H242.828L215.672 238.15L242.828 190.228H296.097ZM86.1074 190.228L112.065 238.149L86.1084 286.072H32.9033L5.74707 238.15L32.9033 190.228H86.1074ZM191.135 128.485L218.29 176.407L191.135 224.33H137.865L110.709 176.407L137.865 128.485H191.135ZM296.097 66.7422L323.252 114.665L296.097 162.587H242.828L215.672 114.665L242.828 66.7422H296.097ZM86.1074 66.7422L112.065 114.664L86.1084 162.587H32.9033L5.74707 114.665L32.9033 66.7422H86.1074ZM191.135 5L218.29 52.9219L191.135 100.845H137.865L110.709 52.9219L137.865 5H191.135Z" stroke="#F0F2E0" stroke-width="10"/>
</svg>
