<svg width="70" height="70" viewBox="0 0 70 70" fill="none" xmlns="http://www.w3.org/2000/svg">
<path d="M48.0445 62.8006C47.8622 63.5681 47.7347 64.2537 47.6561 64.8329C47.6967 64.6508 47.7379 64.4574 47.7792 64.2532C47.9441 63.478 48.1238 62.6382 48.3147 61.752C48.2139 62.1158 48.124 62.466 48.0445 62.8006Z" fill="#D2B9F2"/>
<path d="M47.6561 64.8329C48.236 60.5615 51.4714 50.5057 59.7734 44.4536M47.6561 64.8329C48.6766 60.2603 50.0075 48.5458 47.1675 38.2682M47.6561 64.8329C49.3714 56.7416 52.9681 40.3829 53.6326 39.6785" stroke="#B6C699" stroke-linecap="round" stroke-linejoin="round"/>
<path d="M50.9826 30.7734C47.8394 31.6278 51.2089 37.4348 53.2866 40.2316C59.0245 38.0204 60.4944 31.9541 57.3053 32.6167C55.5197 32.9878 54.4005 35.4343 53.7947 37.6638L54.4028 34.5909C61.8335 28.4609 59.5844 26.0867 57.6077 26.578C60.4674 23.0755 62.3849 20.3489 60.3096 20.1687C59.4969 20.0982 58.6883 21.013 57.9611 22.334C60.0211 17.7593 60.3849 15.5732 58.1544 14.4405C56.1703 13.4329 55.6639 18.7253 55.7882 23.1258C55.6436 20.7614 55.0447 18.9791 53.5132 19.6816C51.6702 20.527 52.308 23.2132 53.4801 25.6998C53.1296 25.3506 52.7039 25.3131 52.2009 25.7404C51.0429 26.7242 51.5692 28.9841 52.4992 31.1092C52.1178 30.7423 51.6212 30.5998 50.9826 30.7734Z" fill="#D2B9F2"/>
<path d="M53.2866 40.2316C51.2089 37.4348 47.8394 31.6278 50.9826 30.7734C51.6212 30.5998 52.1178 30.7423 52.4992 31.1092M53.2866 40.2316C53.3184 40.0255 53.3493 39.808 53.3788 39.5814M53.2866 40.2316L53.7947 37.6638M53.2866 40.2316C53.3104 40.0317 53.3411 39.8135 53.3788 39.5814M53.2866 40.2316C59.0245 38.0204 60.4944 31.9541 57.3053 32.6167C55.5197 32.9878 54.4005 35.4343 53.7947 37.6638M52.4992 31.1092C52.8802 31.4757 53.1462 32.0662 53.324 32.789M52.4992 31.1092C52.7527 31.6887 53.0363 32.2581 53.324 32.789M52.4992 31.1092C51.5692 28.9841 51.0429 26.7242 52.2009 25.7404C52.7039 25.3131 53.1296 25.3506 53.4801 25.6998M53.324 32.789C53.7923 34.6937 53.6474 37.5172 53.3788 39.5814M53.324 32.789C53.6955 33.4746 54.0737 34.0958 54.4028 34.5909M53.3788 39.5814C53.4724 39.0061 53.6096 38.3451 53.7947 37.6638M53.7947 37.6638L54.4028 34.5909M54.4028 34.5909C54.4959 34.2831 54.5696 33.9032 54.6236 33.4748M54.4028 34.5909L54.6236 33.4748M54.4028 34.5909C54.4644 34.033 54.5649 33.3284 54.7048 32.5699M54.4028 34.5909C61.8335 28.4609 59.5844 26.0867 57.6077 26.578M53.4801 25.6998C53.7594 25.9781 53.9911 26.4546 54.176 27.0516M53.4801 25.6998C53.6978 26.1616 53.9339 26.6166 54.176 27.0516M53.4801 25.6998C52.308 23.2132 51.6702 20.527 53.5132 19.6816C55.0447 18.9791 55.6436 20.7614 55.7882 23.1258M54.176 27.0516C54.6374 28.5413 54.8081 30.7819 54.7048 32.5699M54.176 27.0516C54.6159 27.8422 55.0756 28.5668 55.4801 29.147M54.7048 32.5699C54.6864 32.8881 54.6593 33.192 54.6236 33.4748M54.7048 32.5699C54.8595 31.7308 55.0626 30.826 55.3149 29.9814M54.6236 33.4748L55.3149 29.9814M55.3149 29.9814L55.4801 29.147M55.3149 29.9814C55.4263 29.6087 55.5472 29.2477 55.6778 28.9093M55.4801 29.147C55.6802 27.71 55.8519 25.7623 55.8213 23.9952M55.4801 29.147L56.0187 26.4251M55.4801 29.147C55.7972 27.8602 56.3376 26.0413 57.0095 24.3765M55.4801 29.147C55.5461 29.0676 55.612 28.9884 55.6778 28.9093M55.7882 23.1258C55.8054 23.4084 55.8162 23.6993 55.8213 23.9952M55.7882 23.1258C55.7965 23.4203 55.8076 23.7109 55.8213 23.9952M55.7882 23.1258C55.6639 18.7253 56.1703 13.4329 58.1544 14.4405C60.3849 15.5732 60.0211 17.7593 57.9611 22.334M55.8213 23.9952C55.8644 24.8881 55.9328 25.7202 56.0187 26.4251M56.0187 26.4251L56.5573 23.7031M56.0187 26.4251C56.3714 25.7021 56.7022 25.0201 57.0095 24.3765M57.9611 22.334C57.6756 22.9678 57.3577 23.6475 57.0095 24.3765M57.9611 22.334C57.6238 22.9467 57.304 23.6468 57.0095 24.3765M57.9611 22.334C58.6883 21.013 59.4969 20.0982 60.3096 20.1687C62.3849 20.3489 60.4674 23.0755 57.6077 26.578M55.6778 28.9093C56.0856 27.8525 56.5876 27.016 57.1862 26.7296C57.3228 26.6643 57.4645 26.6136 57.6077 26.578M55.6778 28.9093C56.3443 28.1083 56.9974 27.3255 57.6077 26.578" stroke="#8E6EC9" stroke-linecap="round" stroke-linejoin="round"/>
<path d="M28.6102 64.086C28.8856 64.8253 29.0965 65.4899 29.2459 66.055C29.1831 65.8793 29.1185 65.6925 29.0523 65.4949C28.7933 64.7459 28.5115 63.9346 28.213 63.0787C28.3578 63.4273 28.4901 63.7637 28.6102 64.086Z" fill="#D2B9F2"/>
<path d="M29.2459 66.055C28.1445 61.8875 23.6957 52.3066 14.7117 47.3226M29.2459 66.055C27.6702 61.6429 24.9071 50.1813 26.4602 39.6322M29.2459 66.055C26.5474 58.2364 20.964 42.445 20.2179 41.8277" stroke="#B6C699" stroke-linecap="round" stroke-linejoin="round"/>
<path d="M22.4296 32.0507C25.5727 32.9051 22.2032 38.7122 20.1256 41.5089C14.3876 39.2978 12.9177 33.2314 16.1068 33.8941C17.8924 34.2651 19.0116 36.7116 19.6174 38.9411L19.0093 35.8683C11.5786 29.7383 13.8277 27.364 15.8044 27.8554C12.9447 24.3528 11.0272 21.6262 13.1025 21.4461C13.9152 21.3755 14.7239 22.2903 15.451 23.6114C13.391 19.0367 13.0272 16.8505 15.2577 15.7178C17.2418 14.7103 17.7482 20.0026 17.624 24.4031C17.7685 22.0387 18.3674 20.2565 19.8989 20.959C21.7419 21.8044 21.1041 24.4905 19.932 26.9771C20.2826 26.6279 20.7083 26.5904 21.2112 27.0178C22.3693 28.0015 21.8429 30.2614 20.913 32.3865C21.2943 32.0197 21.7909 31.8771 22.4296 32.0507Z" fill="#D2B9F2"/>
<path d="M20.1256 41.5089C22.2032 38.7122 25.5727 32.9051 22.4296 32.0507C21.7909 31.8771 21.2943 32.0197 20.913 32.3865M20.1256 41.5089C20.0937 41.3028 20.0628 41.0854 20.0333 40.8588M20.1256 41.5089L19.6174 38.9411M20.1256 41.5089C20.1017 41.309 20.071 41.0909 20.0333 40.8588M20.1256 41.5089C14.3876 39.2978 12.9177 33.2314 16.1068 33.8941C17.8924 34.2651 19.0116 36.7116 19.6174 38.9411M20.913 32.3865C20.5319 32.7531 20.2659 33.3436 20.0882 34.0663M20.913 32.3865C20.6594 32.966 20.3758 33.5355 20.0882 34.0663M20.913 32.3865C21.8429 30.2614 22.3693 28.0015 21.2112 27.0178C20.7083 26.5904 20.2826 26.6279 19.932 26.9771M20.0882 34.0663C19.6198 35.9711 19.7647 38.7945 20.0333 40.8588M20.0882 34.0663C19.7166 34.752 19.3384 35.3731 19.0093 35.8683M20.0333 40.8588C19.9397 40.2834 19.8025 39.6224 19.6174 38.9411M19.6174 38.9411L19.0093 35.8683M19.0093 35.8683C18.9162 35.5604 18.8425 35.1805 18.7885 34.7521M19.0093 35.8683L18.7885 34.7521M19.0093 35.8683C18.9477 35.3104 18.8472 34.6057 18.7073 33.8473M19.0093 35.8683C11.5786 29.7383 13.8277 27.364 15.8044 27.8554M19.932 26.9771C19.6527 27.2555 19.421 27.7319 19.2361 28.329M19.932 26.9771C19.7143 27.439 19.4782 27.8939 19.2361 28.329M19.932 26.9771C21.1041 24.4905 21.7419 21.8044 19.8989 20.959C18.3674 20.2565 17.7685 22.0387 17.624 24.4031M19.2361 28.329C18.7747 29.8187 18.604 32.0593 18.7073 33.8473M19.2361 28.329C18.7962 29.1195 18.3365 29.8441 17.9321 30.4244M18.7073 33.8473C18.7257 34.1655 18.7528 34.4694 18.7885 34.7521M18.7073 33.8473C18.5526 33.0082 18.3495 32.1033 18.0972 31.2587M18.7885 34.7521L18.0972 31.2587M18.0972 31.2587L17.9321 30.4244M18.0972 31.2587C17.9858 30.886 17.8649 30.525 17.7343 30.1866M17.9321 30.4244C17.7319 28.9873 17.5602 27.0396 17.5908 25.2726M17.9321 30.4244L17.3934 27.7024M17.9321 30.4244C17.6149 29.1376 17.0745 27.3187 16.4026 25.6539M17.9321 30.4244C17.866 30.3449 17.8001 30.2657 17.7343 30.1866M17.624 24.4031C17.6067 24.6857 17.5959 24.9766 17.5908 25.2726M17.624 24.4031C17.6156 24.6977 17.6045 24.9882 17.5908 25.2726M17.624 24.4031C17.7482 20.0026 17.2418 14.7103 15.2577 15.7178C13.0272 16.8505 13.391 19.0367 15.451 23.6114M17.5908 25.2726C17.5477 26.1654 17.4793 26.9976 17.3934 27.7024M17.3934 27.7024L16.8548 24.9805M17.3934 27.7024C17.0407 26.9794 16.7099 26.2974 16.4026 25.6539M15.451 23.6114C15.7365 24.2452 16.0544 24.9248 16.4026 25.6539M15.451 23.6114C15.7883 24.2241 16.1081 24.9242 16.4026 25.6539M15.451 23.6114C14.7239 22.2903 13.9152 21.3755 13.1025 21.4461C11.0272 21.6262 12.9447 24.3528 15.8044 27.8554M17.7343 30.1866C17.3265 29.1299 16.8245 28.2933 16.2259 28.0069C16.0893 27.9416 15.9476 27.891 15.8044 27.8554M17.7343 30.1866C17.0679 29.3857 16.4147 28.6029 15.8044 27.8554" stroke="#8E6EC9" stroke-linecap="round" stroke-linejoin="round"/>
<path d="M36.6392 63.5472C36.5131 52.5446 36.1043 30.2801 35.4775 29.2427" stroke="#B6C699" stroke-linecap="round" stroke-linejoin="round"/>
<path d="M31.9109 21.1124C28.9522 22.4747 33.2355 27.6448 35.7469 30.0595C41.0403 26.9301 41.487 20.7042 38.4513 21.8851C36.7517 22.5462 36.0523 25.1441 35.8235 27.4431L35.9152 24.312C42.2302 17.0378 39.6195 15.068 37.7512 15.8795C39.9925 11.9523 41.4327 8.94619 39.3562 9.11165C38.5431 9.17645 37.8968 10.2124 37.398 11.6354C38.6734 6.78309 38.6707 4.56688 36.2836 3.81857C34.1602 3.15292 34.5358 8.45618 35.3859 12.7756C34.8524 10.4676 33.9671 8.80889 32.5729 9.75494C30.895 10.8934 31.9681 13.4371 33.5352 15.6957C33.1317 15.4093 32.7057 15.4427 32.2803 15.9473C31.3009 17.109 32.1936 19.2508 33.4621 21.1929C33.0253 20.8941 32.512 20.8356 31.9109 21.1124Z" fill="#D2B9F2"/>
<path d="M35.7469 30.0595C33.2355 27.6448 28.9522 22.4747 31.9109 21.1124C32.512 20.8356 33.0253 20.8941 33.4621 21.1929M35.7469 30.0595C35.7442 29.851 35.7388 29.6314 35.7304 29.4031M35.7469 30.0595L35.8235 27.4431M35.7469 30.0595C35.7374 29.8584 35.7316 29.6382 35.7304 29.4031M35.7469 30.0595C41.0403 26.9301 41.487 20.7042 38.4513 21.8851C36.7517 22.5462 36.0523 25.1441 35.8235 27.4431M33.4621 21.1929C33.8985 21.4914 34.2585 22.0297 34.5533 22.7132M33.4621 21.1929C33.808 21.7225 34.1819 22.2372 34.5533 22.7132M33.4621 21.1929C32.1936 19.2508 31.3009 17.109 32.2803 15.9473C32.7057 15.4427 33.1317 15.4093 33.5352 15.6957M34.5533 22.7132C35.3301 24.5143 35.654 27.3228 35.7304 29.4031M34.5533 22.7132C35.0331 23.328 35.5088 23.8781 35.9152 24.312M35.7304 29.4031C35.7276 28.8202 35.7536 28.1456 35.8235 27.4431M35.8235 27.4431L35.9152 24.312M35.9152 24.312C35.9561 23.9929 35.966 23.6061 35.9485 23.1747M35.9152 24.312L35.9485 23.1747M35.9152 24.312C35.8837 23.7516 35.8663 23.04 35.8789 22.2689M35.9152 24.312C42.2302 17.0378 39.6195 15.068 37.7512 15.8795M33.5352 15.6957C33.8567 15.9241 34.1639 16.3557 34.445 16.9139M33.5352 15.6957C33.8262 16.1152 34.1343 16.5249 34.445 16.9139M33.5352 15.6957C31.9681 13.4371 30.895 10.8934 32.5729 9.75494C33.9671 8.80889 34.8524 10.4676 35.3859 12.7756M34.445 16.9139C35.1464 18.3068 35.6852 20.4884 35.8789 22.2689M34.445 16.9139C35.0096 17.6208 35.5827 18.2595 36.0776 18.7649M35.8789 22.2689C35.9134 22.5857 35.9369 22.8899 35.9485 23.1747M35.8789 22.2689C35.8928 21.4157 35.9435 20.4897 36.0527 19.6151M35.9485 23.1747L36.0527 19.6151M36.0527 19.6151L36.0776 18.7649M36.0527 19.6151C36.1009 19.229 36.1605 18.853 36.2333 18.4977M36.0776 18.7649C36.0374 17.3145 35.8847 15.3652 35.5624 13.6276M36.0776 18.7649L36.1588 15.9913M36.0776 18.7649C36.1776 17.4433 36.4099 15.5601 36.7973 13.8072M36.0776 18.7649C36.1296 18.6756 36.1815 18.5866 36.2333 18.4977M35.3859 12.7756C35.4497 13.0514 35.5084 13.3365 35.5624 13.6276M35.3859 12.7756C35.4428 13.0647 35.5019 13.3494 35.5624 13.6276M35.3859 12.7756C34.5358 8.45618 34.1602 3.15292 36.2836 3.81857C38.6707 4.56688 38.6734 6.78309 37.398 11.6354M35.5624 13.6276C35.7525 14.501 35.9575 15.3104 36.1588 15.9913M36.1588 15.9913L36.24 13.2178M36.1588 15.9913C36.3871 15.22 36.6006 14.4926 36.7973 13.8072M37.398 11.6354C37.2213 12.3077 37.0201 13.0306 36.7973 13.8072M37.398 11.6354C37.1667 12.2955 36.9671 13.0388 36.7973 13.8072M37.398 11.6354C37.8968 10.2124 38.5431 9.17645 39.3562 9.11165C41.4327 8.94619 39.9925 11.9523 37.7512 15.8795M36.2333 18.4977C36.4608 17.3881 36.8176 16.4801 37.3606 16.0986C37.4845 16.0116 37.6159 15.9383 37.7512 15.8795M36.2333 18.4977C36.7582 17.5976 37.2729 16.7176 37.7512 15.8795" stroke="#8E6EC9" stroke-linecap="round" stroke-linejoin="round"/>
</svg>
