<svg width="70" height="72" viewBox="0 0 70 72" fill="none" xmlns="http://www.w3.org/2000/svg">
<path d="M25.8881 36.3584C26.9521 42.0059 26.6247 57.1683 22.2049 57.7208C17.785 58.2733 16.8638 57.7208 11.1553 60.1763C5.44687 62.6317 7.52638 69.436 17.0484 70.4892C34.0916 72.3743 33.4999 68.7704 46.2683 64.105C46.2683 64.105 48.822 62.3371 53.1436 64.105" stroke="#3D3D3D" stroke-width="2" stroke-linecap="round" stroke-linejoin="round"/>
<path d="M45.0777 36.3584C44.0137 42.0059 44.3411 57.1683 48.761 57.7208C53.1808 58.2733 54.1021 57.7208 59.8105 60.1763C65.519 62.6317 63.4394 69.436 53.9174 70.4892C36.8743 72.3743 37.4659 68.7704 24.6975 64.105C24.6975 64.105 22.1439 62.3371 17.8223 64.105" stroke="#3D3D3D" stroke-width="2" stroke-linecap="round" stroke-linejoin="round"/>
<path d="M59.8103 54.5289C57.1912 54.6926 52.3949 50.4528 54.1628 32.1843C53.7536 29.8107 51.3145 25.5545 44.8321 27.5189C38.3497 29.4833 38.2024 23.9176 38.939 20.8892" stroke="#3D3D3D" stroke-width="2" stroke-linecap="round" stroke-linejoin="round"/>
<path d="M10.9465 54.2833C13.5656 54.447 18.362 50.2072 16.594 31.9387C17.0033 29.5651 19.4424 25.3089 25.9248 27.2733C32.4072 29.2377 32.5545 23.672 31.8178 20.6436" stroke="#3D3D3D" stroke-width="2" stroke-linecap="round" stroke-linejoin="round"/>
<circle cx="35.747" cy="11.0674" r="10.0674" stroke="#3D3D3D" stroke-width="2" stroke-linecap="round" stroke-linejoin="round"/>
</svg>
