<svg width="70" height="70" viewBox="0 0 70 70" fill="none" xmlns="http://www.w3.org/2000/svg">
<path d="M35.2988 41.5972V6M35.2988 41.5972C29.9333 41.5972 25.5808 46.241 25.5808 50.092C25.5808 55.7552 29.9333 64.25 35.2988 64.25C40.6643 64.25 45.0169 55.7552 45.0169 50.092C45.0169 46.241 40.6643 41.5972 35.2988 41.5972ZM12.6331 28.7434V64.25M8.4488 6.42069L5.91816 6.66988C5.48033 6.7131 5.05591 6.84515 4.67083 7.05796C4.28576 7.27076 3.94813 7.55985 3.67856 7.90756C3.409 8.25527 3.21317 8.65429 3.10303 9.08025C2.9929 9.5062 2.97078 9.95014 3.03802 10.3849L5.20298 24.352C5.56866 26.7176 7.60741 28.6884 10.0054 28.6884H15.2576C17.6523 28.6884 19.691 26.7176 20.06 24.352L22.2282 10.3849C22.2954 9.95014 22.2733 9.5062 22.1631 9.08025C22.053 8.65429 21.8572 8.25527 21.5876 7.90756C21.3181 7.55985 20.9804 7.27076 20.5953 7.05796C20.2103 6.84515 19.7859 6.7131 19.348 6.66988L16.8239 6.41746C14.0391 6.13889 11.2335 6.13889 8.4488 6.41746M54.7576 41.0083V6.08414C58.5082 7.11969 64.7442 11.0257 65.7765 20.6531L67.6308 35.2609C67.9544 37.8272 67.304 40.3869 64.7507 40.827C62.6148 41.1927 59.3755 41.3124 54.7576 41.0083ZM54.7576 41.0083V64.25" stroke="black" stroke-width="2" stroke-linecap="round" stroke-linejoin="round"/>
</svg>
