<svg width="612" height="626" viewBox="0 0 612 626" fill="none" xmlns="http://www.w3.org/2000/svg">
<path d="M183.147 470.709L210.736 519.396L183.147 568.084H130.5L101.274 519.375L128.853 470.709H183.147ZM282.686 412.157L310.275 460.844L282.686 509.532H228.392L200.802 460.844L228.392 412.157H282.686ZM83.5898 412.157L109.961 460.844L83.5889 509.532H29.3145L1.72363 460.844L29.3145 412.157H83.5898ZM183.147 353.604L210.736 402.292L183.147 450.979H128.853L101.262 402.292L128.853 353.604H183.147ZM282.686 295.053L310.275 343.739L282.686 392.428H228.392L200.802 343.739L228.392 295.053H282.686ZM83.5898 295.053L109.961 343.739L83.5889 392.428H29.3145L1.72363 343.739L29.3145 295.053H83.5898ZM183.147 236.5L210.737 285.188L183.147 333.875H128.853L101.262 285.188L128.853 236.5H183.147Z" stroke="#F3DAC3" stroke-width="3"/>
<path d="M483.147 526.709L510.736 575.396L483.147 624.084H430.5L401.274 575.375L428.853 526.709H483.147ZM582.686 468.157L610.275 516.844L582.686 565.532H528.392L500.802 516.844L528.392 468.157H582.686ZM383.59 468.157L409.961 516.844L383.589 565.532H329.314L301.724 516.844L329.314 468.157H383.59ZM483.147 409.604L510.736 458.292L483.147 506.979H428.853L401.262 458.292L428.853 409.604H483.147ZM582.686 351.053L610.275 399.739L582.686 448.428H528.392L500.802 399.739L528.392 351.053H582.686ZM383.59 351.053L409.961 399.739L383.589 448.428H329.314L301.724 399.739L329.314 351.053H383.59ZM483.147 292.5L510.737 341.188L483.147 389.875H428.853L401.262 341.188L428.853 292.5H483.147Z" stroke="#F3DAC3" stroke-width="3"/>
<path d="M382.147 235.709L409.736 284.396L382.147 333.084H329.5L300.274 284.375L327.853 235.709H382.147ZM481.686 177.157L509.275 225.844L481.686 274.532H427.392L399.802 225.844L427.392 177.157H481.686ZM282.59 177.157L308.961 225.844L282.589 274.532H228.314L200.724 225.844L228.314 177.157H282.59ZM382.147 118.604L409.736 167.292L382.147 215.979H327.853L300.262 167.292L327.853 118.604H382.147ZM481.686 60.0527L509.275 108.739L481.686 157.428H427.392L399.802 108.739L427.392 60.0527H481.686ZM282.59 60.0527L308.961 108.739L282.589 157.428H228.314L200.724 108.739L228.314 60.0527H282.59ZM382.147 1.5L409.737 50.1875L382.147 98.875H327.853L300.262 50.1875L327.853 1.5H382.147Z" stroke="#F3DAC3" stroke-width="3"/>
</svg>
