<svg width="910" height="579" viewBox="0 0 910 579" fill="none" xmlns="http://www.w3.org/2000/svg">
<path d="M635.5 319.055L593.437 244.827L635.5 170.599H718.388L760.45 244.827L718.388 319.055H635.5ZM488.281 405.654L446.219 331.426L488.281 257.198H571.169L613.231 331.426L571.169 405.654H488.281ZM488.281 232.456L446.219 158.228L488.281 84H571.169L613.231 158.228L571.169 232.456H488.281ZM341.062 319.055L299 244.827L341.062 170.599H423.95L464.157 244.827L423.95 319.055H341.062ZM341.062 492.253L299 418.025L341.062 343.798H423.95L464.157 418.025L423.95 492.253H341.062ZM490.755 578.853L446.219 504.625L488.281 430.397H571.169L613.231 504.625L571.169 578.853H490.755ZM635.5 492.253L593.437 418.025L635.5 343.798H718.388L760.45 418.025L718.388 492.253H635.5Z" fill="#F0F2E0"/>
<path d="M268.09 437.396L306.186 504.624L268.09 571.853H195.719L155.32 504.523L193.36 437.396H268.09ZM415.309 350.798L453.403 418.025L415.309 485.253H340.579L302.482 418.025L340.579 350.798H415.309ZM120.78 350.798L157.195 418.025L120.78 485.253H46.1416L8.04492 418.025L46.1416 350.798H120.78ZM268.09 264.198L306.186 331.426L268.09 398.654H193.36L155.264 331.426L193.36 264.198H268.09ZM415.31 177.6L453.403 244.826L415.309 312.055H340.579L302.482 244.826L340.578 177.6H415.31ZM120.78 177.6L157.195 244.827L120.78 312.055H46.1416L8.04492 244.826L46.1406 177.6H120.78ZM268.09 91L306.186 158.228L268.09 225.456H193.36L155.264 158.228L193.36 91H268.09Z" stroke="#F0F2E0" stroke-width="14"/>
<path d="M716.09 353.396L754.186 420.624L716.09 487.853H643.719L603.32 420.523L641.36 353.396H716.09ZM863.309 266.798L901.403 334.025L863.309 401.253H788.579L750.482 334.025L788.579 266.798H863.309ZM568.78 266.798L605.195 334.025L568.78 401.253H494.142L456.045 334.025L494.142 266.798H568.78ZM716.09 180.198L754.186 247.426L716.09 314.654H641.36L603.264 247.426L641.36 180.198H716.09ZM863.31 93.5996L901.403 160.826L863.309 228.055H788.579L750.482 160.826L788.578 93.5996H863.31ZM568.78 93.5996L605.195 160.827L568.78 228.055H494.142L456.045 160.826L494.141 93.5996H568.78ZM716.09 7L754.186 74.2275L716.09 141.456H641.36L603.264 74.2275L641.36 7H716.09Z" stroke="#F0F2E0" stroke-width="14"/>
</svg>
