<svg width="17" height="17" viewBox="0 0 17 17" fill="none" xmlns="http://www.w3.org/2000/svg">
<path d="M8.06941 5.17488C6.29597 5.17488 4.86472 6.60613 4.86472 8.37957C4.86472 10.153 6.29597 11.5843 8.06941 11.5843C9.84285 11.5843 11.2741 10.153 11.2741 8.37957C11.2741 6.60613 9.84285 5.17488 8.06941 5.17488ZM8.06941 10.4624C6.92253 10.4624 5.9866 9.52644 5.9866 8.37957C5.9866 7.23269 6.92253 6.29675 8.06941 6.29675C9.21628 6.29675 10.1522 7.23269 10.1522 8.37957C10.1522 9.52644 9.21628 10.4624 8.06941 10.4624ZM11.4053 4.29675C10.9913 4.29675 10.6569 4.63113 10.6569 5.04519C10.6569 5.45925 10.9913 5.79363 11.4053 5.79363C11.8194 5.79363 12.1538 5.46082 12.1538 5.04519C12.1539 4.94687 12.1346 4.84949 12.0971 4.75863C12.0595 4.66777 12.0044 4.58521 11.9348 4.51569C11.8653 4.44617 11.7828 4.39104 11.6919 4.35347C11.601 4.31591 11.5037 4.29663 11.4053 4.29675ZM14.3163 8.37957C14.3163 7.51707 14.3241 6.66238 14.2757 5.80144C14.2272 4.80144 13.9991 3.91394 13.2678 3.18269C12.535 2.44988 11.6491 2.22332 10.6491 2.17488C9.7866 2.12644 8.93191 2.13425 8.07097 2.13425C7.20847 2.13425 6.35379 2.12644 5.49285 2.17488C4.49285 2.22332 3.60535 2.45144 2.8741 3.18269C2.14129 3.9155 1.91472 4.80144 1.86629 5.80144C1.81785 6.66394 1.82566 7.51863 1.82566 8.37957C1.82566 9.2405 1.81785 10.0968 1.86629 10.9577C1.91472 11.9577 2.14285 12.8452 2.8741 13.5764C3.60691 14.3093 4.49285 14.5358 5.49285 14.5843C6.35535 14.6327 7.21003 14.6249 8.07097 14.6249C8.93347 14.6249 9.78816 14.6327 10.6491 14.5843C11.6491 14.5358 12.5366 14.3077 13.2678 13.5764C14.0007 12.8436 14.2272 11.9577 14.2757 10.9577C14.3257 10.0968 14.3163 9.24207 14.3163 8.37957ZM12.9413 12.0639C12.8272 12.3483 12.6897 12.5608 12.4694 12.7796C12.2491 12.9999 12.0382 13.1374 11.7538 13.2514C10.9319 13.578 8.98035 13.5046 8.06941 13.5046C7.15847 13.5046 5.20535 13.578 4.38347 13.253C4.0991 13.1389 3.8866 13.0014 3.66785 12.7811C3.44754 12.5608 3.31004 12.3499 3.19597 12.0655C2.87097 11.2421 2.94441 9.2905 2.94441 8.37957C2.94441 7.46863 2.87097 5.5155 3.19597 4.69363C3.31004 4.40925 3.44754 4.19675 3.66785 3.978C3.88816 3.75925 4.0991 3.62019 4.38347 3.50613C5.20535 3.18113 7.15847 3.25457 8.06941 3.25457C8.98035 3.25457 10.9335 3.18113 11.7553 3.50613C12.0397 3.62019 12.2522 3.75769 12.471 3.978C12.6913 4.19832 12.8288 4.40925 12.9428 4.69363C13.2678 5.5155 13.1944 7.46863 13.1944 8.37957C13.1944 9.2905 13.2678 11.2421 12.9413 12.0639Z" fill="#422E56"/>
</svg>
